<svg height="512" viewBox="0 0 512 512" width="512" xmlns="http://www.w3.org/2000/svg"><g id="Dizzy_Face" data-name="Dizzy Face"><g id="Flat"><path d="m256 512c-73 0-135.277-17.354-180.09-50.184-49.661-36.382-75.91-90.954-75.91-157.816 0-68.928 27.8-145.309 74.357-204.318 23.958-30.365 51.252-54.464 81.124-71.629 32.394-18.615 66.213-28.053 100.519-28.053s68.125 9.438 100.519 28.053c29.872 17.165 57.166 41.264 81.124 71.629 46.557 59.009 74.357 135.39 74.357 204.318 0 66.862-26.249 121.434-75.91 157.816-44.813 32.83-107.09 50.184-180.09 50.184z" fill="#ffcc80"/><path d="m447.917 113.439c.046 2.182.083 4.367.083 6.561 0 167.9-136.1 304-304 304a302.922 302.922 0 0 1 -122.748-25.822 179.921 179.921 0 0 0 54.658 63.638c44.813 32.83 107.09 50.184 180.09 50.184s135.277-17.354 180.09-50.184c49.661-36.382 75.91-90.954 75.91-157.816 0-63.688-23.746-133.729-64.083-190.561z" fill="#ffb74d"/><path d="m158.247 195a8 8 0 0 0 -11.247-1.247l-35 28-35-28a8 8 0 0 0 -10 12.494l32.194 25.753-32.194 25.753a8 8 0 0 0 10 12.494l35-28 35 28a8 8 0 0 0 10-12.494l-32.194-25.753 32.194-25.753a8 8 0 0 0 1.247-11.247z" fill="#424242"/><path d="m445 257.753-32.194-25.753 32.194-25.753a8 8 0 0 0 -10-12.494l-35 28-35-28a8 8 0 1 0 -10 12.494l32.194 25.753-32.194 25.753a8 8 0 0 0 10 12.494l35-28 35 28a8 8 0 0 0 10-12.494z" fill="#424242"/><path d="m307.44 364.35c-4.05-.05-7.62-1.08-11.75-2.26-2.01-.6-4.12-1.26-6.36-1.97-2.35-.75-4.78-1.511-7.34-2.28-9.06-2.72-21.1-5.84-33.94-5.84h-.14c-15.56 0-30.01 4.56-41.62 8.229-2.11.67-4.1 1.3-5.98 1.861-4.12 1.18-7.68 2.21-11.75 2.26a13.76 13.76 0 0 1 -6.47-1.47 11.249 11.249 0 0 1 -5.33-6.191 13.847 13.847 0 0 1 -.76-4.689c.07-4.6 1.49-8.69 3.6-13.42a87.417 87.417 0 0 1 8.87-14.84c6.09-8.32 16.37-19.91 30.76-27.86 9.49-5.231 19.17-7.88 28.77-7.88a58.054 58.054 0 0 1 25.5 6.189 84.92 84.92 0 0 1 20.66 14.46c11.1 10.42 20.1 23.321 24.09 34.5a27.687 27.687 0 0 1 1.75 8.851 12.751 12.751 0 0 1 -1.97 7.14 11.494 11.494 0 0 1 -6.44 4.67 15.155 15.155 0 0 1 -4.15.54z" fill="#ef5350"/><path d="m188.56 364.35a30.919 30.919 0 0 0 6.945-.959 113 113 0 0 1 93.489-59.232 80.9 80.9 0 0 0 -15.494-9.97 58.054 58.054 0 0 0 -25.5-6.189c-9.6 0-19.28 2.649-28.77 7.88-14.39 7.95-24.67 19.54-30.76 27.86a87.417 87.417 0 0 0 -8.87 14.84c-2.11 4.73-3.53 8.819-3.6 13.42a13.847 13.847 0 0 0 .76 4.689 11.249 11.249 0 0 0 5.33 6.191 13.76 13.76 0 0 0 6.47 1.47z" fill="#e53935"/><g fill="#ffe4c0"><circle cx="56" cy="312" r="24"/><circle cx="456" cy="312" r="24"/></g></g></g></svg>